#tb 0: 71/500
#media_type 0: video
#codec_id 0: rawvideo
#dimensions 0: 188x128
#sar 0: 0/1
0,          0,          0,        1,    72192, 0x1847500c
0,          1,          1,        1,    72192, 0x1b0e2e87
0,          2,          2,        1,    72192, 0x293276c8
0,          3,          3,        1,    72192, 0x743b9705
0,          4,          4,        1,    72192, 0xcc1b2530
